@startuml State Diagram

!theme plain
'skin rose
'left to right direction
hide empty description
'!theme reddress-lightgreen
title FB_LinearActuatorHoming State Diagram



state FB_LinearActuatorHoming{

state eInnerState #84b1f5 {
	[*] --> eInnerState_Idle : START
	state eInnerState_Idle #lightblue {
state "ERROR" as eInnerState_Idle_ERROR <<exitPoint>> #ff3333
	state eInnerState_Idle_Node_0 <<choice>>
	[*] ---> eInnerState_Idle_Node_0 : START
		state eInnerState_Idle_Node_1 <<choice>>
	eInnerState_Idle_Node_1 ---> [*] : (HomingNeeded)
	}
	state eInnerState_CheckIfEnabled #lightblue {
state "ERROR" as eInnerState_CheckIfEnabled_ERROR <<exitPoint>> #ff3333
	[*] ---> [*]
	}
	state eInnerState_ResetAxis1 #lightblue {
state "ERROR" as eInnerState_ResetAxis1_ERROR <<exitPoint>> #ff3333
	state "fbReset()" as eInnerState_ResetAxis1_Node_0 
	[*] ---> eInnerState_ResetAxis1_Node_0 : START
	eInnerState_ResetAxis1_Node_0 ---> [*] : None
	}
	state eInnerState_ResetAxis2 #lightblue {
state "ERROR" as eInnerState_ResetAxis2_ERROR <<exitPoint>> #ff3333
	state eInnerState_ResetAxis2_Node_0 <<choice>>
	[*] ---> eInnerState_ResetAxis2_Node_0 : START
	state "fbReset()" as eInnerState_ResetAxis2_Node_1 
		state eInnerState_ResetAxis2_Node_2 <<choice>>
	eInnerState_ResetAxis2_Node_2 ---> [*] : (bEnabledBeforeHoming)
	eInnerState_ResetAxis2_Node_2 ---> [*] : (NOT (bEnabledBeforeHoming))
	state eInnerState_ResetAxis2_Node_3 <<choice>>
	state "fbEventHandler()" as eInnerState_ResetAxis2_Node_4 
		state eInnerState_ResetAxis2_Node_5 <<choice>>
		state "fbEventHandler(RESET_NOT_DONE_IN_ALLOTED_TIME)" as eInnerState_ResetAxis2_Node_6 
	}
	state eInnerState_EnableAxis1 #lightblue {
state "ERROR" as eInnerState_EnableAxis1_ERROR <<exitPoint>> #ff3333
	state "fbPower()" as eInnerState_EnableAxis1_Node_0 
	[*] ---> eInnerState_EnableAxis1_Node_0 : START
	eInnerState_EnableAxis1_Node_0 ---> [*] : None
	}
	state eInnerState_EnableAxis2 #lightblue {
state "ERROR" as eInnerState_EnableAxis2_ERROR <<exitPoint>> #ff3333
	state eInnerState_EnableAxis2_Node_0 <<choice>>
	[*] ---> eInnerState_EnableAxis2_Node_0 : START
	state "fbEventHandler()" as eInnerState_EnableAxis2_Node_1 
	state eInnerState_EnableAxis2_Node_2 <<choice>>
	state "fbReset()" as eInnerState_EnableAxis2_Node_3 
	eInnerState_EnableAxis2_Node_3 ---> [*] : (fbPower.Status = TRUE)
		state eInnerState_EnableAxis2_Node_4 <<choice>>
		state "fbEventHandler(ENABLE_NOT_DONE_IN_ALLOTED_TIME)" as eInnerState_EnableAxis2_Node_5 
	}
	state eInnerState_MoveToTop #lightblue {
state "ERROR" as eInnerState_MoveToTop_ERROR <<exitPoint>> #ff3333
	state "fbJog()" as eInnerState_MoveToTop_Node_0 
	[*] ---> eInnerState_MoveToTop_Node_0 : START
		state eInnerState_MoveToTop_Node_1 <<choice>>
		state "fbEventHandler()" as eInnerState_MoveToTop_Node_2 
		state eInnerState_MoveToTop_Node_3 <<choice>>
		state "fbEventHandler(MC2_JOG_COMMAND_ABORTED)" as eInnerState_MoveToTop_Node_4 
			state eInnerState_MoveToTop_Node_5 <<choice>>
			state "fbEventHandler(TASK_WARNING)" as eInnerState_MoveToTop_Node_6 
			state eInnerState_MoveToTop_Node_7 <<choice>>
			state "fbJog()" as eInnerState_MoveToTop_Node_8 
	eInnerState_MoveToTop_Node_8 ---> [*] : (stParent.bAtTopPosition)
	}
	state eInnerState_WaitingForHalt #lightblue {
state "ERROR" as eInnerState_WaitingForHalt_ERROR <<exitPoint>> #ff3333
	state "fbHalt()" as eInnerState_WaitingForHalt_Node_0 
	[*] ---> eInnerState_WaitingForHalt_Node_0 : START
		state eInnerState_WaitingForHalt_Node_1 <<choice>>
		state "fbHalt()" as eInnerState_WaitingForHalt_Node_2 
	eInnerState_WaitingForHalt_Node_2 ---> [*] : (fbHalt.Done)
		state eInnerState_WaitingForHalt_Node_3 <<choice>>
		state "fbEventHandler()" as eInnerState_WaitingForHalt_Node_4 
	}
	state eInnerState_SettingHomePos #lightblue {
state "ERROR" as eInnerState_SettingHomePos_ERROR <<exitPoint>> #ff3333
	state "fbHome()" as eInnerState_SettingHomePos_Node_0 
	[*] ---> eInnerState_SettingHomePos_Node_0 : START
		state eInnerState_SettingHomePos_Node_1 <<choice>>
		state "fbEventHandler()" as eInnerState_SettingHomePos_Node_2 
		state eInnerState_SettingHomePos_Node_3 <<choice>>
		state "fbEventHandler(MC2_HOME_COMMAND_ABORTED)" as eInnerState_SettingHomePos_Node_4 
		state eInnerState_SettingHomePos_Node_5 <<choice>>
		state "fbHome()" as eInnerState_SettingHomePos_Node_6 
			state eInnerState_SettingHomePos_Node_7 <<choice>>
	eInnerState_SettingHomePos_Node_7 ---> [*] : (bEnabledBeforeHoming)
	eInnerState_SettingHomePos_Node_7 ---> [*] : (NOT (bEnabledBeforeHoming))
	}
	state eInnerState_DisableAxis #lightblue {
state "ERROR" as eInnerState_DisableAxis_ERROR <<exitPoint>> #ff3333
	state "fbPower()" as eInnerState_DisableAxis_Node_0 
	[*] ---> eInnerState_DisableAxis_Node_0 : START
		state eInnerState_DisableAxis_Node_1 <<choice>>
		state "fbEventHandler()" as eInnerState_DisableAxis_Node_2 
		state eInnerState_DisableAxis_Node_3 <<choice>>
	eInnerState_DisableAxis_Node_3 ---> [*] : (fbPower.Status = FALSE)
	}
	state eInnerState_WrapUp #lightblue {
state "ERROR" as eInnerState_WrapUp_ERROR <<exitPoint>> #ff3333
	[*] ---> [*]
	}
	}
	eInnerState_Idle_Node_0 ---> eInnerState_Idle_Node_1 : (bStart)
	eInnerState_Idle ---> eInnerState_CheckIfEnabled : (HomingNeeded)
	eInnerState_CheckIfEnabled ---> eInnerState_ResetAxis1
	eInnerState_ResetAxis1 ---> eInnerState_ResetAxis2 : None
	eInnerState_ResetAxis2_Node_0 ---> eInnerState_ResetAxis2_Node_1 : (fbReset.Done)
	eInnerState_ResetAxis2_Node_1 ---> eInnerState_ResetAxis2_Node_2 : (fbReset.Done)
	eInnerState_ResetAxis2 ---> eInnerState_MoveToTop : (bEnabledBeforeHoming)
	eInnerState_ResetAxis2 ---> eInnerState_EnableAxis1 : (NOT (bEnabledBeforeHoming))
	eInnerState_ResetAxis2_Node_1 ---> eInnerState_ResetAxis2_Node_3 : (NOT (fbReset.Done))
	eInnerState_ResetAxis2_Node_3 ---> eInnerState_ResetAxis2_Node_4 : (fbReset.Error)
	eInnerState_ResetAxis2_Node_4 ---> eInnerState_ResetAxis2_ERROR : (fbReset.Error)
	eInnerState_ResetAxis2_Node_3 ---> eInnerState_ResetAxis2_Node_5 : (NOT (fbReset.Error))
	eInnerState_ResetAxis2_Node_5 ---> eInnerState_ResetAxis2_Node_6 : (nPLC_Cycles > SystemConfig.nLINEAR_ACTUATOR_MAX_CYCLES_TO_RESET)
	eInnerState_ResetAxis2_Node_6 ---> eInnerState_ResetAxis2_ERROR : (nPLC_Cycles > SystemConfig.nLINEAR_ACTUATOR_MAX_CYCLES_TO_RESET)
	eInnerState_EnableAxis1 ---> eInnerState_EnableAxis2 : None
	eInnerState_EnableAxis2_Node_0 ---> eInnerState_EnableAxis2_Node_1 : (fbPower.Error)
	eInnerState_EnableAxis2_Node_1 ---> eInnerState_EnableAxis2_ERROR : (fbPower.Error)
	eInnerState_EnableAxis2_Node_1 ---> eInnerState_EnableAxis2_Node_2 : (NOT (fbPower.Error))
	eInnerState_EnableAxis2_Node_2 ---> eInnerState_EnableAxis2_Node_3 : (fbPower.Status = TRUE)
	eInnerState_EnableAxis2 ---> eInnerState_MoveToTop : (fbPower.Status = TRUE)
	eInnerState_EnableAxis2_Node_2 ---> eInnerState_EnableAxis2_Node_4 : (NOT (fbPower.Status = TRUE))
	eInnerState_EnableAxis2_Node_4 ---> eInnerState_EnableAxis2_Node_5 : (nPLC_Cycles > SystemConfig.nLINEAR_ACTUATOR_MAX_CYCLES_TO_ENABLE)
	eInnerState_EnableAxis2_Node_5 ---> eInnerState_EnableAxis2_ERROR : (nPLC_Cycles > SystemConfig.nLINEAR_ACTUATOR_MAX_CYCLES_TO_ENABLE)
	eInnerState_MoveToTop_Node_0 ---> eInnerState_MoveToTop_Node_1
	eInnerState_MoveToTop_Node_1 ---> eInnerState_MoveToTop_Node_2 : (fbJog.Error)
	eInnerState_MoveToTop_Node_2 ---> eInnerState_MoveToTop_ERROR : (fbJog.Error)
	eInnerState_MoveToTop_Node_2 ---> eInnerState_MoveToTop_Node_3 : (NOT (fbJog.Error))
	eInnerState_MoveToTop_Node_3 ---> eInnerState_MoveToTop_Node_4 : (fbJog.CommandAborted)
	eInnerState_MoveToTop_Node_4 ---> eInnerState_MoveToTop_ERROR : (fbJog.CommandAborted)
	eInnerState_MoveToTop_Node_3 ---> eInnerState_MoveToTop_Node_5 : (NOT (fbJog.CommandAborted))
	eInnerState_MoveToTop_Node_5 ---> eInnerState_MoveToTop_Node_6 : (fbJog.Done)
	eInnerState_MoveToTop_Node_3 ---> eInnerState_MoveToTop_Node_7 : (NOT (fbJog.CommandAborted))
	eInnerState_MoveToTop_Node_7 ---> eInnerState_MoveToTop_Node_8 : (stParent.bAtTopPosition)
	eInnerState_MoveToTop ---> eInnerState_WaitingForHalt : (stParent.bAtTopPosition)
	eInnerState_WaitingForHalt_Node_0 ---> eInnerState_WaitingForHalt_Node_1
	eInnerState_WaitingForHalt_Node_1 ---> eInnerState_WaitingForHalt_Node_2 : (fbHalt.Done)
	eInnerState_WaitingForHalt ---> eInnerState_SettingHomePos : (fbHalt.Done)
	eInnerState_WaitingForHalt_Node_2 ---> eInnerState_WaitingForHalt_Node_3 : (NOT (fbHalt.Done))
	eInnerState_WaitingForHalt_Node_3 ---> eInnerState_WaitingForHalt_Node_4 : (fbHalt.Error)
	eInnerState_WaitingForHalt_Node_4 ---> eInnerState_WaitingForHalt_ERROR : (fbHalt.Error)
	eInnerState_SettingHomePos_Node_0 ---> eInnerState_SettingHomePos_Node_1
	eInnerState_SettingHomePos_Node_1 ---> eInnerState_SettingHomePos_Node_2 : (fbHome.Error)
	eInnerState_SettingHomePos_Node_2 ---> eInnerState_SettingHomePos_ERROR : (fbHome.Error)
	eInnerState_SettingHomePos_Node_2 ---> eInnerState_SettingHomePos_Node_3 : (NOT (fbHome.Error))
	eInnerState_SettingHomePos_Node_3 ---> eInnerState_SettingHomePos_Node_4 : (fbHome.CommandAborted)
	eInnerState_SettingHomePos_Node_4 ---> eInnerState_SettingHomePos_ERROR : (fbHome.CommandAborted)
	eInnerState_SettingHomePos_Node_4 ---> eInnerState_SettingHomePos_Node_5 : (NOT (fbHome.CommandAborted))
	eInnerState_SettingHomePos_Node_5 ---> eInnerState_SettingHomePos_Node_6 : (fbHome.Done)
	eInnerState_SettingHomePos_Node_6 ---> eInnerState_SettingHomePos_Node_7 : (fbHome.Done)
	eInnerState_SettingHomePos ---> eInnerState_WrapUp : (bEnabledBeforeHoming)
	eInnerState_SettingHomePos ---> eInnerState_DisableAxis : (NOT (bEnabledBeforeHoming))
	eInnerState_DisableAxis_Node_0 ---> eInnerState_DisableAxis_Node_1
	eInnerState_DisableAxis_Node_1 ---> eInnerState_DisableAxis_Node_2 : (fbPower.Error)
	eInnerState_DisableAxis_Node_2 ---> eInnerState_DisableAxis_ERROR : (fbPower.Error)
	eInnerState_DisableAxis_Node_2 ---> eInnerState_DisableAxis_Node_3 : (NOT (fbPower.Error))
	eInnerState_DisableAxis ---> eInnerState_WrapUp : (fbPower.Status = FALSE)
	eInnerState_WrapUp ---> eInnerState_Idle
eInnerState : 
eInnerState : 


}

@enduml
