@startuml State Diagram

!theme plain
'skin rose
'left to right direction
hide empty description
'!theme reddress-lightgreen
title FB_StepperJog State Diagram



state FB_StepperJog{

state eInnerState #84b1f5 {
	[*] --> eInnerState_Idle : START
	state eInnerState_Idle #lightblue {
state "ERROR" as eInnerState_Idle_ERROR <<exitPoint>> #ff3333
	state eInnerState_Idle_Node_0 <<choice>>
	[*] ---> eInnerState_Idle_Node_0 : START
	eInnerState_Idle_Node_0 ---> [*] : (bStart)
	}
	state eInnerState_CheckIfEnabled #lightblue {
state "ERROR" as eInnerState_CheckIfEnabled_ERROR <<exitPoint>> #ff3333
	state eInnerState_CheckIfEnabled_Node_0 <<choice>>
	[*] ---> eInnerState_CheckIfEnabled_Node_0 : START
	eInnerState_CheckIfEnabled_Node_0 ---> [*] : (fbPower.Status)
	eInnerState_CheckIfEnabled_Node_0 ---> [*] : (NOT (fbPower.Status))
	}
	state eInnerState_EnableAxis1 #lightblue {
state "ERROR" as eInnerState_EnableAxis1_ERROR <<exitPoint>> #ff3333
	state "fbPower()" as eInnerState_EnableAxis1_Node_0 
	[*] ---> eInnerState_EnableAxis1_Node_0 : START
	eInnerState_EnableAxis1_Node_0 ---> [*] : None
	}
	state eInnerState_EnableAxis2 #lightblue {
state "ERROR" as eInnerState_EnableAxis2_ERROR <<exitPoint>> #ff3333
	state eInnerState_EnableAxis2_Node_0 <<choice>>
	[*] ---> eInnerState_EnableAxis2_Node_0 : START
	state "fbEventHandler()" as eInnerState_EnableAxis2_Node_1 
	state eInnerState_EnableAxis2_Node_2 <<choice>>
	state "fbReset()" as eInnerState_EnableAxis2_Node_3 
	eInnerState_EnableAxis2_Node_3 ---> [*] : (fbPower.Status = TRUE)
		state eInnerState_EnableAxis2_Node_4 <<choice>>
		state "fbEventHandler(ENABLE_NOT_DONE_IN_ALLOTED_TIME)" as eInnerState_EnableAxis2_Node_5 
	}
	state eInnerState_Jog1 #lightblue {
state "ERROR" as eInnerState_Jog1_ERROR <<exitPoint>> #ff3333
	state eInnerState_Jog1_Node_0 <<choice>>
	[*] ---> eInnerState_Jog1_Node_0 : START
	state "fbEventHandler(SYSTEM_IN_UNEXPECTED_STATE)" as eInnerState_Jog1_Node_1 
		state eInnerState_Jog1_Node_2 <<choice>>
		state "fbEventHandler(UNABLE_TO_START_TASK)" as eInnerState_Jog1_Node_3 
		state "SetStepperJog()" as eInnerState_Jog1_Node_4 
	eInnerState_Jog1_Node_4 ---> [*] : (NOT (fbJog.Error))
	}
	state eInnerState_Jog2 #lightblue {
state "ERROR" as eInnerState_Jog2_ERROR <<exitPoint>> #ff3333
	state eInnerState_Jog2_Node_0 <<choice>>
	[*] ---> eInnerState_Jog2_Node_0 : START
		state eInnerState_Jog2_Node_1 <<choice>>
		state "fbEventHandler(UNABLE_TO_START_TASK)" as eInnerState_Jog2_Node_2 
		state eInnerState_Jog2_Node_3 <<choice>>
		state "fbEventHandler(MC2_JOG_COMMAND_ABORTED)" as eInnerState_Jog2_Node_4 
		state eInnerState_Jog2_Node_5 <<choice>>
		state "fbJog()" as eInnerState_Jog2_Node_6 
	eInnerState_Jog2_Node_6 ---> [*] : (fbJog.Done)
		state eInnerState_Jog2_Node_7 <<choice>>
		state "fbJog()" as eInnerState_Jog2_Node_8 
	eInnerState_Jog2_Node_8 ---> [*] : (eDirection = E_StepperMotorMovingDirection.None)
		state "fbEventHandler(SYSTEM_IN_UNEXPECTED_STATE)" as eInnerState_Jog2_Node_9 
	}
	}
	eInnerState_Idle ---> eInnerState_CheckIfEnabled : (bStart)
	eInnerState_CheckIfEnabled ---> eInnerState_Jog1 : (fbPower.Status)
	eInnerState_CheckIfEnabled ---> eInnerState_EnableAxis1 : (NOT (fbPower.Status))
	eInnerState_EnableAxis1 ---> eInnerState_EnableAxis2 : None
	eInnerState_EnableAxis2_Node_0 ---> eInnerState_EnableAxis2_Node_1 : (fbPower.Error)
	eInnerState_EnableAxis2_Node_1 ---> eInnerState_EnableAxis2_ERROR : (fbPower.Error)
	eInnerState_EnableAxis2_Node_1 ---> eInnerState_EnableAxis2_Node_2 : (NOT (fbPower.Error))
	eInnerState_EnableAxis2_Node_2 ---> eInnerState_EnableAxis2_Node_3 : (fbPower.Status = TRUE)
	eInnerState_EnableAxis2 ---> eInnerState_Jog1 : (fbPower.Status = TRUE)
	eInnerState_EnableAxis2_Node_2 ---> eInnerState_EnableAxis2_Node_4 : (NOT (fbPower.Status = TRUE))
	eInnerState_EnableAxis2_Node_4 ---> eInnerState_EnableAxis2_Node_5 : (nPLC_Cycles > SystemConfig.nSTEPPER_MAX_CYCLES_TO_ENABLE)
	eInnerState_EnableAxis2_Node_5 ---> eInnerState_EnableAxis2_ERROR : (nPLC_Cycles > SystemConfig.nSTEPPER_MAX_CYCLES_TO_ENABLE)
	eInnerState_Jog1_Node_0 ---> eInnerState_Jog1_Node_1 : (fbJog.Busy)
	eInnerState_Jog1_Node_1 ---> eInnerState_Jog1_ERROR : (fbJog.Busy)
	eInnerState_Jog1_Node_0 ---> eInnerState_Jog1_Node_2 : (NOT (fbJog.Busy))
	eInnerState_Jog1_Node_2 ---> eInnerState_Jog1_Node_3 : (fbJog.Error)
	eInnerState_Jog1_Node_3 ---> eInnerState_Jog1_ERROR : (fbJog.Error)
	eInnerState_Jog1_Node_2 ---> eInnerState_Jog1_Node_4 : (NOT (fbJog.Error))
	eInnerState_Jog1 ---> eInnerState_Jog2 : (NOT (fbJog.Error))
	eInnerState_Jog2_Node_0 ---> eInnerState_Jog2_Node_1 : (NOT (fbJog.Busy))
	eInnerState_Jog2_Node_1 ---> eInnerState_Jog2_Node_2 : (fbJog.Error)
	eInnerState_Jog2_Node_2 ---> eInnerState_Jog2_ERROR : (fbJog.Error)
	eInnerState_Jog2_Node_2 ---> eInnerState_Jog2_Node_3 : (NOT (fbJog.Error))
	eInnerState_Jog2_Node_3 ---> eInnerState_Jog2_Node_4 : (fbJog.CommandAborted)
	eInnerState_Jog2_Node_4 ---> eInnerState_Jog2_ERROR : (fbJog.CommandAborted)
	eInnerState_Jog2_Node_4 ---> eInnerState_Jog2_Node_5 : (NOT (fbJog.CommandAborted))
	eInnerState_Jog2_Node_5 ---> eInnerState_Jog2_Node_6 : (fbJog.Done)
	eInnerState_Jog2 ---> eInnerState_Idle : (fbJog.Done)
	eInnerState_Jog2_Node_6 ---> eInnerState_Jog2_Node_7 : (NOT (fbJog.Done))
	eInnerState_Jog2_Node_7 ---> eInnerState_Jog2_Node_8 : (eDirection = E_StepperMotorMovingDirection.None)
	eInnerState_Jog2 ---> eInnerState_Idle : (eDirection = E_StepperMotorMovingDirection.None)
	eInnerState_Jog2_Node_7 ---> eInnerState_Jog2_Node_9 : (NOT (eDirection = E_StepperMotorMovingDirection.None))
	eInnerState_Jog2_Node_9 ---> eInnerState_Jog2_ERROR : (NOT (eDirection = E_StepperMotorMovingDirection.None))
eInnerState : 
eInnerState : 


}

@enduml
